<?xml version="1.0" encoding="utf-8"?>
<!-- Generator: Adobe Illustrator 27.7.0, SVG Export Plug-In . SVG Version: 6.00 Build 0)  -->
<svg version="1.1" id="claire_adler" xmlns="http://www.w3.org/2000/svg" xmlns:xlink="http://www.w3.org/1999/xlink" x="0px"
	 y="0px" viewBox="0 0 1203.9 198.6" style="enable-background:new 0 0 1203.9 198.6;" xml:space="preserve">
<style type="text/css">
	.st0{fill:#B8860B;}
</style>
<g>
	<path d="M307.2,148.6h9.2v41.5h25.8v7.7h-34.9V148.6z"/>
	<path d="M370.8,176.4v-27.8h9.2v27.5c0,10.1,4.6,14.5,12.5,14.5s12.5-4.4,12.5-14.5v-27.5h9v27.8c0,14.4-8.1,22.2-21.5,22.2
		C378.9,198.6,370.8,190.8,370.8,176.4z"/>
	<path d="M479.7,197.9l-13.4-18.7L453,197.9h-10.4l18.3-25.1l-17.3-24.2H454l12.6,17.5l12.5-17.5h9.9l-17.3,23.8l18.5,25.5H479.7z"
		/>
	<path d="M518.8,176.4v-27.8h9.2v27.5c0,10.1,4.6,14.5,12.5,14.5c8,0,12.5-4.4,12.5-14.5v-27.5h9v27.8c0,14.4-8.1,22.2-21.5,22.2
		C526.9,198.6,518.8,190.8,518.8,176.4z"/>
	<path d="M629.6,197.9l-10.1-14.4c-0.6,0.1-1.3,0.1-1.9,0.1h-11.1v14.4h-9.2v-49.3h20.3c13,0,21,6.6,21,17.5c0,7.5-3.8,13-10.5,15.6
		l11.3,16.2H629.6z M617.2,156.4h-10.7V176h10.7c8,0,12.2-3.7,12.2-9.9C629.4,159.9,625.2,156.4,617.2,156.4z"/>
	<path d="M691.9,180.5v17.4h-9.2v-17.3l-19.4-32h9.8l14.4,24l14.6-24h9L691.9,180.5z"/>
	<path d="M822.9,166.1c0,10.8-8,17.5-21,17.5h-11.1v14.2h-9.2v-49.3h20.3C814.9,148.6,822.9,155.2,822.9,166.1z M813.7,166.1
		c0-6.2-4.2-9.8-12.2-9.8h-10.7v19.6h10.7C809.5,175.9,813.7,172.3,813.7,166.1z"/>
	<path d="M886.9,197.9l-10.1-14.4c-0.6,0.1-1.3,0.1-1.9,0.1h-11.1v14.4h-9.2v-49.3h20.3c13,0,21,6.6,21,17.5c0,7.5-3.8,13-10.5,15.6
		l11.3,16.2H886.9z M874.5,156.4h-10.7V176h10.7c8,0,12.2-3.7,12.2-9.9C886.6,159.9,882.5,156.4,874.5,156.4z"/>
</g>
<g>
	<path class="st0" d="M0,50C0,21,22.2,0,52.1,0c15.8,0,29.4,5.7,38.5,16.2l-11.7,11c-7.1-7.6-15.8-11.4-26-11.4
		C32.8,15.8,18.2,30,18.2,50c0,20,14.6,34.2,34.7,34.2c10.1,0,18.9-3.8,26-11.5l11.7,11.1c-9,10.6-22.6,16.2-38.6,16.2
		C22.2,100,0,79,0,50z"/>
	<path class="st0" d="M121.8,1.4h18.1v81.9h50.8v15.3h-68.9V1.4z"/>
	<path class="st0" d="M282.6,76.1H234l-9.6,22.5h-18.6l43.8-97.2h17.8l43.9,97.2h-18.9L282.6,76.1z M276.7,61.9l-18.3-42.5
		l-18.2,42.5H276.7z"/>
	<path class="st0" d="M337.5,1.4h18.1v97.2h-18.1V1.4z"/>
	<path class="st0" d="M459.3,98.6l-19.9-28.5c-1.2,0.1-2.5,0.1-3.8,0.1h-21.9v28.3h-18.1V1.4h40c25.6,0,41.4,13.1,41.4,34.6
		c0,14.7-7.5,25.6-20.7,30.7l22.4,31.9H459.3z M434.9,16.7h-21.1v38.8h21.1c15.8,0,24-7.2,24-19.4S450.7,16.7,434.9,16.7z"/>
	<path class="st0" d="M584,83.5v15.1h-72.9V1.4h71v15.1h-52.9v25.3h46.9v14.9h-46.9v26.8H584z"/>
	<path class="st0" d="M733.4,76.1h-48.6l-9.6,22.5h-18.6l43.8-97.2h17.8L762,98.6h-18.9L733.4,76.1z M727.4,61.9l-18.3-42.5
		l-18.2,42.5H727.4z"/>
	<path class="st0" d="M788.2,1.4h42.5c31.5,0,53.1,19.4,53.1,48.6s-21.5,48.6-53.1,48.6h-42.5V1.4z M829.9,83.3
		c21.7,0,35.7-13.2,35.7-33.3s-14-33.3-35.7-33.3h-23.6v66.7H829.9z"/>
	<path class="st0" d="M916.8,1.4h18.1v81.9h50.8v15.3h-68.9V1.4z"/>
	<path class="st0" d="M1086.8,83.5v15.1h-72.9V1.4h71v15.1H1032v25.3h46.9v14.9H1032v26.8H1086.8z"/>
	<path class="st0" d="M1184.5,98.6l-19.9-28.5c-1.3,0.1-2.5,0.1-3.8,0.1h-21.9v28.3h-18.1V1.4h40c25.6,0,41.4,13.1,41.4,34.6
		c0,14.7-7.5,25.6-20.7,30.7l22.4,31.9H1184.5z M1160,16.7h-21.1v38.8h21.1c15.8,0,24-7.2,24-19.4S1175.9,16.7,1160,16.7z"/>
</g>
</svg>
